<?xml version="1.0" standalone="no"?>
<!DOCTYPE svg PUBLIC "-//W3C//DTD SVG 20010904//EN"
 "http://www.w3.org/TR/2001/REC-SVG-20010904/DTD/svg10.dtd">
<svg version="1.0" xmlns="http://www.w3.org/2000/svg"
 width="300.000000pt" height="300.000000pt" viewBox="0 0 300.000000 300.000000"
 preserveAspectRatio="xMidYMid meet">
<metadata>
Created by potrace 1.14, written by Peter Selinger 2001-2017
</metadata>
<g transform="translate(0.000000,300.000000) scale(0.100000,-0.100000)"
fill="#000000" stroke="none">
<path d="M1360 2963 c-19 -1 -58 -6 -87 -9 l-52 -5 -36 -116 c-20 -63 -88
-226 -151 -361 -100 -216 -114 -253 -114 -299 l0 -53 -33 0 c-32 0 -32 0 -155
-246 l-123 -246 7 -100 c7 -101 7 -102 105 -317 53 -119 131 -280 173 -359 42
-78 76 -145 76 -147 0 -3 51 -130 113 -282 63 -153 122 -302 132 -331 l17 -54
47 7 c25 4 47 8 48 9 12 11 -262 667 -348 831 -43 83 -117 236 -165 340 -85
187 -86 192 -95 295 l-9 105 122 248 122 247 33 0 33 0 0 51 c0 45 15 85 114
298 62 135 131 299 152 363 l38 117 75 6 c42 4 81 8 86 10 12 4 -77 3 -125 -2z"/>
<path d="M1462 2457 l-23 -52 108 -257 c104 -249 109 -258 136 -258 27 0 27 0
12 -30 -15 -29 -14 -33 65 -207 57 -126 79 -185 75 -201 -3 -13 -40 -97 -81
-185 -133 -285 -166 -368 -161 -409 5 -33 3 -37 -20 -40 -21 -2 -35 -19 -71
-86 l-44 -83 19 -52 c11 -29 23 -51 27 -49 3 1 37 62 75 135 59 114 72 132 95
135 24 3 26 6 21 36 -7 34 23 119 92 266 115 244 153 330 153 344 0 8 -36 94
-80 191 -76 170 -79 178 -65 205 14 28 14 29 -13 32 -25 3 -34 20 -156 311
-71 169 -132 307 -135 307 -3 0 -16 -24 -29 -53z"/>
<path d="M1345 1777 c-52 -28 -62 -38 -77 -79 -10 -26 -31 -66 -48 -89 -38
-53 -41 -127 -9 -192 24 -46 137 -217 144 -217 2 0 20 7 39 17 l35 16 -48 71
c-74 110 -91 148 -91 209 0 44 5 60 30 93 16 21 37 61 46 88 12 35 25 53 50
68 21 12 31 25 27 34 -8 21 -32 17 -98 -19z"/>
</g>
</svg>
